<svg xmlns="http://www.w3.org/2000/svg" xmlns:xlink="http://www.w3.org/1999/xlink" viewBox="0 0 1044 203.77"><defs><style>.cls-1{isolation:isolate;}.cls-2{fill:none;}.cls-3{fill:#1b1464;}.cls-4{fill:#0071bc;}.cls-5{fill:#c31c24;}.cls-6{fill:#b20000;}.cls-7{fill:#e24313;}.cls-8{fill:#f15a24;}.cls-9{fill:#ea7f2f;}.cls-10{opacity:0.5;}.cls-10,.cls-20{mix-blend-mode:overlay;}.cls-11{fill:url(#linear-gradient);}.cls-12{fill:url(#linear-gradient-2);}.cls-13{fill:url(#linear-gradient-3);}.cls-14{fill:url(#linear-gradient-4);}.cls-15{fill:url(#linear-gradient-5);}.cls-16{fill:url(#linear-gradient-6);}.cls-17{fill:url(#linear-gradient-7);}.cls-18{fill:url(#linear-gradient-8);}.cls-19{fill:url(#linear-gradient-9);}.cls-20{opacity:0.6;}.cls-21{fill:url(#linear-gradient-10);}.cls-22{fill:url(#linear-gradient-11);}.cls-23{fill:url(#linear-gradient-12);}.cls-24{fill:url(#linear-gradient-13);}.cls-25{fill:url(#linear-gradient-14);}.cls-26{fill:url(#linear-gradient-15);}.cls-27{fill:url(#linear-gradient-16);}.cls-28{fill:url(#linear-gradient-17);}.cls-29{fill:url(#linear-gradient-18);}</style><linearGradient id="linear-gradient" x1="471.46" y1="481.39" x2="553.29" y2="339.66" gradientUnits="userSpaceOnUse"><stop offset="0" stop-color="#fff"/><stop offset="0.08" stop-color="#f6f6f6"/><stop offset="0.22" stop-color="#dcdcdc"/><stop offset="0.4" stop-color="#b2b2b2"/><stop offset="0.62" stop-color="#797979"/><stop offset="0.85" stop-color="#303030"/><stop offset="0.99"/></linearGradient><linearGradient id="linear-gradient-2" x1="634.48" y1="481.39" x2="716.3" y2="339.66" xlink:href="#linear-gradient"/><linearGradient id="linear-gradient-3" x1="797.5" y1="481.39" x2="879.32" y2="339.66" xlink:href="#linear-gradient"/><linearGradient id="linear-gradient-4" x1="942.62" y1="477.01" x2="1002.56" y2="373.2" xlink:href="#linear-gradient"/><linearGradient id="linear-gradient-5" x1="1032.53" y1="482.07" x2="1095.71" y2="372.63" xlink:href="#linear-gradient"/><linearGradient id="linear-gradient-6" x1="1113.12" y1="470.52" x2="1182.56" y2="350.25" xlink:href="#linear-gradient"/><linearGradient id="linear-gradient-7" x1="1182.07" y1="480.57" x2="1275.84" y2="318.17" xlink:href="#linear-gradient"/><linearGradient id="linear-gradient-8" x1="1319.07" y1="477.01" x2="1379" y2="373.2" xlink:href="#linear-gradient"/><linearGradient id="linear-gradient-9" x1="1390.38" y1="473.42" x2="1457.87" y2="356.53" xlink:href="#linear-gradient"/><linearGradient id="linear-gradient-10" x1="471.46" y1="481.39" x2="553.29" y2="339.66" gradientUnits="userSpaceOnUse"><stop offset="0" stop-color="#fff" stop-opacity="0"/><stop offset="0.99"/></linearGradient><linearGradient id="linear-gradient-11" x1="634.48" y1="481.39" x2="716.3" y2="339.66" xlink:href="#linear-gradient-10"/><linearGradient id="linear-gradient-12" x1="797.5" y1="481.39" x2="879.32" y2="339.66" xlink:href="#linear-gradient-10"/><linearGradient id="linear-gradient-13" x1="942.62" y1="477.01" x2="1002.56" y2="373.2" xlink:href="#linear-gradient-10"/><linearGradient id="linear-gradient-14" x1="1032.53" y1="482.07" x2="1095.71" y2="372.63" xlink:href="#linear-gradient-10"/><linearGradient id="linear-gradient-15" x1="1113.12" y1="470.52" x2="1182.56" y2="350.25" xlink:href="#linear-gradient-10"/><linearGradient id="linear-gradient-16" x1="1182.07" y1="480.57" x2="1275.84" y2="318.17" xlink:href="#linear-gradient-10"/><linearGradient id="linear-gradient-17" x1="1319.07" y1="477.01" x2="1379" y2="373.2" xlink:href="#linear-gradient-10"/><linearGradient id="linear-gradient-18" x1="1390.38" y1="473.42" x2="1457.87" y2="356.53" xlink:href="#linear-gradient-10"/></defs><title>wwweather_Logo</title><g class="cls-1"><g id="Layer_6" data-name="Layer 6"><path class="cls-2" d="M1042.4,445.66c0,8.61,6,14.93,14.92,14.93,9.18,0,18.08-7.75,19.8-11.2V433.61a44.89,44.89,0,0,0-16.07-3.45C1049.86,430.16,1042.4,436.48,1042.4,445.66Z" transform="translate(-438 -281.21)"/><path class="cls-2" d="M971.51,390.85a22.62,22.62,0,0,0-22.39,19.51h43.34a20.75,20.75,0,0,0-.46-2.84C989.89,398.21,981.42,390.85,971.51,390.85Z" transform="translate(-438 -281.21)"/><path class="cls-2" d="M974.09,455.42A40,40,0,0,0,992,451a35.87,35.87,0,0,0,4.48-2.72c2.87-1.73,5.45-2.3,7.46,0l8.37,9.59a48.34,48.34,0,0,1-1.48-12.18,33.41,33.41,0,0,1,3.54-15.21H946.54A27.37,27.37,0,0,0,974.09,455.42Z" transform="translate(-438 -281.21)"/><path class="cls-2" d="M1348,390.85a22.6,22.6,0,0,0-22.38,19.51h43.33C1368,399.74,1358.86,390.85,1348,390.85Z" transform="translate(-438 -281.21)"/><path class="cls-2" d="M1180.63,395.07a5.36,5.36,0,0,1-4.49,2.38h-25.26v45.92c0,8,4.31,9.18,8.9,9.18,4.88,0,10.9-2,14.06-3.16s5.45.29,6.32,3.16l.47,1.51Z" transform="translate(-438 -281.21)"/><path class="cls-2" d="M1459.31,364.44c-17.8,0-28.41,12.06-32.43,17.8l-4-11.2a5.26,5.26,0,0,0-5.17-3.73h-10.9a5.46,5.46,0,0,0-5.46,5.46V406.4c-5.1-24.92-26.73-42-52.52-42-25.3,0-45.23,15.29-53.87,36.39-5.82-20.34-21.06-36.39-48.58-36.39-13.49,0-24.69,5.17-30.43,9.47V286.67a5.65,5.65,0,0,0-5.45-5.46h-24.39a5.66,5.66,0,0,0-5.46,5.46v82.9a5.32,5.32,0,0,0-4.49-2.26h-25.26V335.17a5.39,5.39,0,0,0-5.16-5.45l-23.54.28a5.65,5.65,0,0,0-5.45,5.46v31.85H1107a5.22,5.22,0,0,0-5.17,5.46v7.5c-6.27-10.21-17.65-15.83-37.3-15.83-18.37,0-36.74,4.59-39,5.46-2.58.86-4.88,2.87-4,7.17L1024,392c.57,3.74,2.58,6.32,6.6,5.17,6.6-2,21.53-4.3,32.14-4.3s15.21,5.16,14.93,19.8a73.72,73.72,0,0,0-21-3.16c-12.75,0-23.09,3-30.72,8.05-.11-23.6-14.21-42.16-34-49.58v39.55a20.75,20.75,0,0,1,.46,2.84H992v20.09h22.37a33.41,33.41,0,0,0-3.54,15.21,48.34,48.34,0,0,0,1.48,12.18l-8.37-9.59c-2-2.3-4.59-1.73-7.46,0A35.87,35.87,0,0,1,992,451V482.3a57.91,57.91,0,0,0,23.42-13.1,6.14,6.14,0,0,0,1.12-1.18c6.56,10.82,18.32,17,33,17,17.8,0,28.41-8.61,35-14.64l3.44,7.75c1.43,3.16,2.87,4,4.88,4h10.33a5.64,5.64,0,0,0,5.45-5.45V414.38a112.11,112.11,0,0,0-1.12-16.93h9.16V448c0,23.24,9.76,37,31.86,37,11.88,0,27.05-4.72,32.32-6.69a5.69,5.69,0,0,0,5.18,3.82h23.82c4.3,0,6-2.3,6-5.45V415.81c2.87-11.76,11.77-20.37,25-20.37,13.78,0,22.67,10,22.67,25.83v55.39a5.45,5.45,0,0,0,5.46,5.45h23.24a5.65,5.65,0,0,0,5.46-5.45v-22c9.74,18,28.29,30.27,51.37,30.27,18.65,0,33.29-6.89,42.76-15.78,2.87-2.3,2.3-5.46.29-7.47l-11.77-13.48c-2-2.3-4.59-1.73-7.46,0a39.94,39.94,0,0,1-22.39,7.17,27.37,27.37,0,0,1-27.55-25h73.47a5.62,5.62,0,0,0,4.88-3v49.21a5.65,5.65,0,0,0,5.46,5.45h22.1c4,0,6.6-1.43,6.6-5.45V407.2a23.23,23.23,0,0,1,20.37-11.76,31.14,31.14,0,0,1,8.33,1.72c2.29,1.15,5.16,0,6.6-2.58l10.62-18.66C1484.85,368.75,1472.79,364.44,1459.31,364.44Zm-382.19,84.95c-1.72,3.45-10.62,11.2-19.8,11.2-8.9,0-14.92-6.32-14.92-14.93,0-9.18,7.46-15.5,18.65-15.5a44.89,44.89,0,0,1,16.07,3.45Zm96.72,0c-3.16,1.15-9.18,3.16-14.06,3.16-4.59,0-8.9-1.15-8.9-9.18V397.45h25.26a5.36,5.36,0,0,0,4.49-2.38v59l-.47-1.51C1179.29,449.68,1177,448.25,1173.84,449.39Zm151.73-39A22.6,22.6,0,0,1,1348,390.85c10.91,0,20.09,8.89,21,19.51Z" transform="translate(-438 -281.21)"/><path class="cls-3" d="M974.09,455.42a27.37,27.37,0,0,1-27.55-25H992V410.36H949.12a22.62,22.62,0,0,1,22.39-19.51c9.91,0,18.38,7.36,20.49,16.67V368a55.89,55.89,0,0,0-19.63-3.53,57.07,57.07,0,0,0-46.5,23.28l4.59-13.81c1.44-3.73-1.15-6.6-5.16-6.6H906.64c-3.15,0-5.45.29-6.6,3.45l-17.22,51.37h-.29l-29-55.1a4.76,4.76,0,0,0-4.59-2.59h-2.3a4.91,4.91,0,0,0-4.59,2.59l-29.27,55.1h-.29l-17.22-51.37c-.57-2-3.44-3.45-5.17-3.45H769.46a6.43,6.43,0,0,0-3.58,1,6.55,6.55,0,0,0-3.6-1H743.62c-3.15,0-5.45.29-6.6,3.45L719.8,422.13h-.28l-29-55.1a4.76,4.76,0,0,0-4.59-2.59h-2.3a4.91,4.91,0,0,0-4.59,2.59l-29.27,55.1h-.29l-17.22-51.37c-.57-2-3.44-3.45-5.17-3.45H606.44a6.43,6.43,0,0,0-3.58,1,6.55,6.55,0,0,0-3.6-1H580.6c-3.15,0-5.45.29-6.6,3.45l-17.22,51.37h-.28l-29-55.1a4.76,4.76,0,0,0-4.59-2.59h-2.3A4.93,4.93,0,0,0,516,367l-29.27,55.1h-.29l-17.22-51.37c-.57-2-3.44-3.45-5.17-3.45H443.42c-4,0-6.6,2.87-4.88,6.6l35.88,107.91A4.86,4.86,0,0,0,479.3,485h1.43a5.07,5.07,0,0,0,4.59-2.58l35.88-66.87h.28l36.17,66.87a5.07,5.07,0,0,0,4.59,2.58h1.15c2.87,0,4.59-1.43,5.16-3.16L603,378.22l34.45,103.6a4.86,4.86,0,0,0,4.87,3.16h1.44a5.07,5.07,0,0,0,4.59-2.58l35.88-66.87h.28l36.16,66.87a5.09,5.09,0,0,0,4.6,2.58h1.14c2.87,0,4.6-1.43,5.17-3.16L766,378.22l34.45,103.6a4.86,4.86,0,0,0,4.87,3.16h1.44a5.09,5.09,0,0,0,4.59-2.58l35.87-66.87h.29l36.16,66.87a5.09,5.09,0,0,0,4.59,2.58h1.15c2.87,0,4.59-1.43,5.17-3.16l19.25-57.91c0,.27,0,.53,0,.8,0,33,24.4,60.27,58.84,60.27A69,69,0,0,0,992,482.3V451A40,40,0,0,1,974.09,455.42Z" transform="translate(-438 -281.21)"/><path class="cls-2" d="M1014.37,430.45H946.54a27.37,27.37,0,0,0,27.55,25,39.94,39.94,0,0,0,22.39-7.17c2.87-1.73,5.45-2.3,7.46,0l8.37,9.59a48.34,48.34,0,0,1-1.48-12.18A33.41,33.41,0,0,1,1014.37,430.45Z" transform="translate(-438 -281.21)"/><path class="cls-2" d="M1042.4,445.66c0,8.61,6,14.93,14.92,14.93,9.18,0,18.08-7.75,19.8-11.2V433.61a44.89,44.89,0,0,0-16.07-3.45C1049.86,430.16,1042.4,436.48,1042.4,445.66Z" transform="translate(-438 -281.21)"/><path class="cls-2" d="M971.51,390.85a22.62,22.62,0,0,0-22.39,19.51h43.34C991.6,399.74,982.41,390.85,971.51,390.85Z" transform="translate(-438 -281.21)"/><path class="cls-2" d="M1180.63,395.07a5.36,5.36,0,0,1-4.49,2.38h-25.26v45.92c0,8,4.31,9.18,8.9,9.18,4.88,0,10.9-2,14.06-3.16s5.45.29,6.32,3.16l.47,1.51Z" transform="translate(-438 -281.21)"/><path class="cls-2" d="M1348,390.85a22.6,22.6,0,0,0-22.38,19.51h43.33C1368,399.74,1358.86,390.85,1348,390.85Z" transform="translate(-438 -281.21)"/><path class="cls-2" d="M556.5,422.13l-29-55.1a4.76,4.76,0,0,0-4.59-2.59h-2.3A4.93,4.93,0,0,0,516,367l-29.27,55.1h-.29l-17.22-51.37c-.57-2-3.44-3.45-5.17-3.45H443.42c-4,0-6.6,2.87-4.88,6.6l35.88,107.91A4.86,4.86,0,0,0,479.3,485h1.43a5.07,5.07,0,0,0,4.59-2.58l35.88-66.87h.28l36.17,66.87a5.07,5.07,0,0,0,4.59,2.58h1.15c2.87,0,4.59-1.43,5.16-3.16l1.14-3.42a298.41,298.41,0,0,1-13-56.27Z" transform="translate(-438 -281.21)"/><path class="cls-2" d="M1459.31,364.44c-17.8,0-28.41,12.06-32.43,17.8l-4-11.2a5.26,5.26,0,0,0-5.17-3.73h-10.9a5.46,5.46,0,0,0-5.46,5.46V406.4c-5.1-24.92-26.73-42-52.52-42-25.3,0-45.23,15.29-53.87,36.39-5.82-20.34-21.06-36.39-48.58-36.39-13.49,0-24.69,5.17-30.43,9.47V286.67a5.65,5.65,0,0,0-5.45-5.46h-24.39a5.66,5.66,0,0,0-5.46,5.46v82.9a5.32,5.32,0,0,0-4.49-2.26h-25.26V335.17a5.39,5.39,0,0,0-5.16-5.45l-23.54.28a5.65,5.65,0,0,0-5.45,5.46v31.85H1107a5.22,5.22,0,0,0-5.17,5.46v7.5c-6.27-10.21-17.65-15.83-37.3-15.83-18.37,0-36.74,4.59-39,5.46-2.58.86-4.88,2.87-4,7.17L1024,392c.57,3.74,2.58,6.32,6.6,5.17,6.6-2,21.53-4.3,32.14-4.3s15.21,5.16,14.93,19.8a73.72,73.72,0,0,0-21-3.16c-12.75,0-23.09,3-30.72,8.05-.14-30.85-24.19-53.11-53.66-53.11a57.07,57.07,0,0,0-46.5,23.28l4.59-13.81c1.44-3.73-1.15-6.6-5.16-6.6H908.64q.24,6.33.25,12.74a306,306,0,0,1-18,104.78,4.65,4.65,0,0,0,3.74-3l19.25-57.91c0,.27,0,.53,0,.8,0,33,24.4,60.27,58.84,60.27,18.65,0,33.29-6.89,42.76-15.78a6.14,6.14,0,0,0,1.12-1.18c6.56,10.82,18.32,17,33,17,17.8,0,28.41-8.61,35-14.64l3.44,7.75c1.43,3.16,2.87,4,4.88,4h10.33a5.64,5.64,0,0,0,5.45-5.45V414.38a112.11,112.11,0,0,0-1.12-16.93h9.16V448c0,23.24,9.76,37,31.86,37,11.88,0,27.05-4.72,32.32-6.69a5.69,5.69,0,0,0,5.18,3.82h23.82c4.3,0,6-2.3,6-5.45V415.81c2.87-11.76,11.77-20.37,25-20.37,13.78,0,22.67,10,22.67,25.83v55.39a5.45,5.45,0,0,0,5.46,5.45h23.24a5.65,5.65,0,0,0,5.46-5.45v-22c9.74,18,28.29,30.27,51.37,30.27,18.65,0,33.29-6.89,42.76-15.78,2.87-2.3,2.3-5.46.29-7.47l-11.77-13.48c-2-2.3-4.59-1.73-7.46,0a39.94,39.94,0,0,1-22.39,7.17,27.37,27.37,0,0,1-27.55-25h73.47a5.62,5.62,0,0,0,4.88-3v49.21a5.65,5.65,0,0,0,5.46,5.45h22.1c4,0,6.6-1.43,6.6-5.45V407.2a23.23,23.23,0,0,1,20.37-11.76,31.14,31.14,0,0,1,8.33,1.72c2.29,1.15,5.16,0,6.6-2.58l10.62-18.66C1484.85,368.75,1472.79,364.44,1459.31,364.44Zm-487.8,26.41c10.9,0,20.09,8.89,21,19.51H949.12A22.62,22.62,0,0,1,971.51,390.85Zm32.43,57.4c-2-2.3-4.59-1.73-7.46,0a39.94,39.94,0,0,1-22.39,7.17,27.37,27.37,0,0,1-27.55-25h67.83a33.41,33.41,0,0,0-3.54,15.21,48.34,48.34,0,0,0,1.48,12.18Zm73.18,1.14c-1.72,3.45-10.62,11.2-19.8,11.2-8.9,0-14.92-6.32-14.92-14.93,0-9.18,7.46-15.5,18.65-15.5a44.89,44.89,0,0,1,16.07,3.45Zm96.72,0c-3.16,1.15-9.18,3.16-14.06,3.16-4.59,0-8.9-1.15-8.9-9.18V397.45h25.26a5.36,5.36,0,0,0,4.49-2.38v59l-.47-1.51C1179.29,449.68,1177,448.25,1173.84,449.39Zm151.73-39A22.6,22.6,0,0,1,1348,390.85c10.91,0,20.09,8.89,21,19.51Z" transform="translate(-438 -281.21)"/><path class="cls-4" d="M908.64,367.31h-2c-3.15,0-5.45.29-6.6,3.45l-17.22,51.37h-.29l-29-55.1a4.76,4.76,0,0,0-4.59-2.59h-2.3a4.91,4.91,0,0,0-4.59,2.59l-29.27,55.1h-.29l-17.22-51.37c-.57-2-3.44-3.45-5.17-3.45H769.46a6.43,6.43,0,0,0-3.58,1,6.55,6.55,0,0,0-3.6-1H743.62c-3.15,0-5.45.29-6.6,3.45L719.8,422.13h-.28l-29-55.1a4.76,4.76,0,0,0-4.59-2.59h-2.3a4.91,4.91,0,0,0-4.59,2.59l-29.27,55.1h-.29l-17.22-51.37c-.57-2-3.44-3.45-5.17-3.45H606.44a6.43,6.43,0,0,0-3.58,1,6.55,6.55,0,0,0-3.6-1H580.6c-3.15,0-5.45.29-6.6,3.45l-17.22,51.37h-.11a298.41,298.41,0,0,0,13,56.27L603,378.22l34.45,103.6a4.86,4.86,0,0,0,4.87,3.16h1.44a5.07,5.07,0,0,0,4.59-2.58l35.88-66.87h.28l36.16,66.87a5.09,5.09,0,0,0,4.6,2.58h1.14c2.87,0,4.6-1.43,5.17-3.16L766,378.22l34.45,103.6a4.86,4.86,0,0,0,4.87,3.16h1.44a5.09,5.09,0,0,0,4.59-2.58l35.87-66.87h.29l36.16,66.87a5.09,5.09,0,0,0,4.59,2.58h1.15a7.05,7.05,0,0,0,1.43-.15,306,306,0,0,0,18-104.78Q908.89,373.65,908.64,367.31Z" transform="translate(-438 -281.21)"/><path class="cls-2" d="M1003.94,448.25l8.37,9.59a48.34,48.34,0,0,1-1.48-12.18,33.41,33.41,0,0,1,3.54-15.21H946.54a27.37,27.37,0,0,0,27.55,25A40,40,0,0,0,992,451a35.87,35.87,0,0,0,4.48-2.72C999.35,446.52,1001.93,446,1003.94,448.25Z" transform="translate(-438 -281.21)"/><path class="cls-2" d="M1159.78,452.55c4.88,0,10.9-2,14.06-3.16s5.45.29,6.32,3.16l.47,1.51v-59a5.36,5.36,0,0,1-4.49,2.38h-25.26v45.92C1150.88,451.4,1155.19,452.55,1159.78,452.55Z" transform="translate(-438 -281.21)"/><path class="cls-2" d="M992,407.52c-2.11-9.31-10.58-16.67-20.49-16.67a22.62,22.62,0,0,0-22.39,19.51h43.34A20.75,20.75,0,0,0,992,407.52Z" transform="translate(-438 -281.21)"/><path class="cls-2" d="M1348,390.85a22.6,22.6,0,0,0-22.38,19.51h43.33C1368,399.74,1358.86,390.85,1348,390.85Z" transform="translate(-438 -281.21)"/><path class="cls-2" d="M1057.32,460.59c9.18,0,18.08-7.75,19.8-11.2V433.61a44.89,44.89,0,0,0-16.07-3.45c-11.19,0-18.65,6.32-18.65,15.5C1042.4,454.27,1048.42,460.59,1057.32,460.59Z" transform="translate(-438 -281.21)"/><path class="cls-2" d="M992,451a40,40,0,0,1-17.91,4.45,27.37,27.37,0,0,1-27.55-25H992V410.36H949.12a22.62,22.62,0,0,1,22.39-19.51c9.91,0,18.38,7.36,20.49,16.67V368a55.89,55.89,0,0,0-19.63-3.53,57.07,57.07,0,0,0-46.5,23.28l4.59-13.81c1.44-3.73-1.15-6.6-5.16-6.6H906.64c-3.15,0-5.45.29-6.6,3.45l-17.22,51.37h-.29l-29-55.1a4.76,4.76,0,0,0-4.59-2.59h-2.3a4.91,4.91,0,0,0-4.59,2.59l-29.27,55.1h-.29l-17.22-51.37c-.57-2-3.44-3.45-5.17-3.45H769.46a6.43,6.43,0,0,0-3.58,1,6.55,6.55,0,0,0-3.6-1H743.62c-3.15,0-5.45.29-6.6,3.45L719.8,422.13h-.28l-29-55.1a4.76,4.76,0,0,0-4.59-2.59h-2.3a4.91,4.91,0,0,0-4.59,2.59l-29.27,55.1h-.29l-17.22-51.37c-.57-2-3.44-3.45-5.17-3.45H606.44a6.43,6.43,0,0,0-3.58,1,6.55,6.55,0,0,0-3.6-1H580.6c-3.15,0-5.45.29-6.6,3.45l-17.22,51.37h-.28l-29-55.1a4.76,4.76,0,0,0-4.59-2.59h-2.3A4.93,4.93,0,0,0,516,367l-29.27,55.1h-.29l-17.22-51.37c-.57-2-3.44-3.45-5.17-3.45H443.42c-4,0-6.6,2.87-4.88,6.6l35.88,107.91A4.86,4.86,0,0,0,479.3,485h1.43a5.07,5.07,0,0,0,4.59-2.58l35.88-66.87h.28l36.17,66.87a5.07,5.07,0,0,0,4.59,2.58h1.15c2.87,0,4.59-1.43,5.16-3.16L603,378.22l34.45,103.6a4.86,4.86,0,0,0,4.87,3.16h1.44a5.07,5.07,0,0,0,4.59-2.58l35.88-66.87h.28l36.16,66.87a5.09,5.09,0,0,0,4.6,2.58h1.14c2.87,0,4.6-1.43,5.17-3.16L766,378.22l34.45,103.6a4.86,4.86,0,0,0,4.87,3.16h1.44a5.09,5.09,0,0,0,4.59-2.58l35.87-66.87h.29l36.16,66.87a5.09,5.09,0,0,0,4.59,2.58h1.15c2.87,0,4.59-1.43,5.17-3.16l19.25-57.91c0,.27,0,.53,0,.8,0,33,24.4,60.27,58.84,60.27A69,69,0,0,0,992,482.3Z" transform="translate(-438 -281.21)"/><path class="cls-5" d="M992.46,410.36H992v20.09h22.37a33.41,33.41,0,0,0-3.54,15.21,48.34,48.34,0,0,0,1.48,12.18l-8.37-9.59c-2-2.3-4.59-1.73-7.46,0A35.87,35.87,0,0,1,992,451V482.3a57.91,57.91,0,0,0,23.42-13.1,6.14,6.14,0,0,0,1.12-1.18c6.56,10.82,18.32,17,33,17,17.8,0,28.41-8.61,35-14.64l3.44,7.75c1.43,3.16,2.87,4,4.88,4h10.33a5.64,5.64,0,0,0,5.45-5.45V414.38a112.11,112.11,0,0,0-1.12-16.93h9.16V448c0,23.24,9.76,37,31.86,37,11.88,0,27.05-4.72,32.32-6.69a5.69,5.69,0,0,0,5.18,3.82h23.82c4.3,0,6-2.3,6-5.45V415.81c2.87-11.76,11.77-20.37,25-20.37,13.78,0,22.67,10,22.67,25.83v55.39a5.45,5.45,0,0,0,5.46,5.45h23.24a5.65,5.65,0,0,0,5.46-5.45v-22c9.74,18,28.29,30.27,51.37,30.27,18.65,0,33.29-6.89,42.76-15.78,2.87-2.3,2.3-5.46.29-7.47l-11.77-13.48c-2-2.3-4.59-1.73-7.46,0a39.94,39.94,0,0,1-22.39,7.17,27.37,27.37,0,0,1-27.55-25h73.47a5.62,5.62,0,0,0,4.88-3v49.21a5.65,5.65,0,0,0,5.46,5.45h22.1c4,0,6.6-1.43,6.6-5.45V407.2a23.23,23.23,0,0,1,20.37-11.76,31.14,31.14,0,0,1,8.33,1.72c2.29,1.15,5.16,0,6.6-2.58l10.62-18.66c3.44-7.17-8.62-11.48-22.1-11.48-17.8,0-28.41,12.06-32.43,17.8l-4-11.2a5.26,5.26,0,0,0-5.17-3.73h-10.9a5.46,5.46,0,0,0-5.46,5.46V406.4c-5.1-24.92-26.73-42-52.52-42-25.3,0-45.23,15.29-53.87,36.39-5.82-20.34-21.06-36.39-48.58-36.39-13.49,0-24.69,5.17-30.43,9.47V286.67a5.65,5.65,0,0,0-5.45-5.46h-24.39a5.66,5.66,0,0,0-5.46,5.46v82.9a5.32,5.32,0,0,0-4.49-2.26h-25.26V335.17a5.39,5.39,0,0,0-5.16-5.45l-23.54.28a5.65,5.65,0,0,0-5.45,5.46v31.85H1107a5.22,5.22,0,0,0-5.17,5.46v7.5c-6.27-10.21-17.65-15.83-37.3-15.83-18.37,0-36.74,4.59-39,5.46-2.58.86-4.88,2.87-4,7.17L1024,392c.57,3.74,2.58,6.32,6.6,5.17,6.6-2,21.53-4.3,32.14-4.3s15.21,5.16,14.93,19.8a73.72,73.72,0,0,0-21-3.16c-12.75,0-23.09,3-30.72,8.05-.11-23.6-14.21-42.16-34-49.58v39.55A20.75,20.75,0,0,1,992.46,410.36ZM1348,390.85c10.91,0,20.09,8.89,21,19.51h-43.33A22.6,22.6,0,0,1,1348,390.85Zm-197.07,6.6h25.26a5.36,5.36,0,0,0,4.49-2.38v59l-.47-1.51c-.87-2.87-3.16-4.3-6.32-3.16s-9.18,3.16-14.06,3.16c-4.59,0-8.9-1.15-8.9-9.18Zm-89.83,32.71a44.89,44.89,0,0,1,16.07,3.45v15.78c-1.72,3.45-10.62,11.2-19.8,11.2-8.9,0-14.92-6.32-14.92-14.93C1042.4,436.48,1049.86,430.16,1061.05,430.16Z" transform="translate(-438 -281.21)"/><path class="cls-2" d="M1180.63,395.07a5.36,5.36,0,0,1-4.49,2.38h-25.26v45.92c0,8,4.31,9.18,8.9,9.18,4.88,0,10.9-2,14.06-3.16s5.45.29,6.32,3.16l.47,1.51Z" transform="translate(-438 -281.21)"/><path class="cls-2" d="M1042.4,445.66c0,8.61,6,14.93,14.92,14.93,9.18,0,18.08-7.75,19.8-11.2V433.61a44.89,44.89,0,0,0-16.07-3.45C1049.86,430.16,1042.4,436.48,1042.4,445.66Z" transform="translate(-438 -281.21)"/><path class="cls-2" d="M1014.37,430.45H946.54a27.37,27.37,0,0,0,27.55,25,39.94,39.94,0,0,0,22.39-7.17c2.87-1.73,5.45-2.3,7.46,0l8.37,9.59a48.34,48.34,0,0,1-1.48-12.18A33.41,33.41,0,0,1,1014.37,430.45Z" transform="translate(-438 -281.21)"/><path class="cls-2" d="M971.51,390.85a22.62,22.62,0,0,0-22.39,19.51h43.34C991.6,399.74,982.41,390.85,971.51,390.85Z" transform="translate(-438 -281.21)"/><path class="cls-2" d="M1348,390.85a22.6,22.6,0,0,0-22.38,19.51h43.33C1368,399.74,1358.86,390.85,1348,390.85Z" transform="translate(-438 -281.21)"/><path class="cls-2" d="M1257.88,365.5a61.55,61.55,0,0,0-11.52-1.06c-13.49,0-24.69,5.17-30.43,9.47V286.67a5.65,5.65,0,0,0-5.45-5.46h-24.39a5.66,5.66,0,0,0-5.46,5.46v82.9a5.32,5.32,0,0,0-4.49-2.26h-25.26V335.17a5.39,5.39,0,0,0-5.16-5.45l-23.54.28a5.65,5.65,0,0,0-5.45,5.46v31.85H1107a5.22,5.22,0,0,0-5.17,5.46v7.5c-6.27-10.21-17.65-15.83-37.3-15.83-18.37,0-36.74,4.59-39,5.46-2.58.86-4.88,2.87-4,7.17L1024,392c.57,3.74,2.58,6.32,6.6,5.17,6.6-2,21.53-4.3,32.14-4.3s15.21,5.16,14.93,19.8a73.72,73.72,0,0,0-21-3.16c-12.75,0-23.09,3-30.72,8.05-.14-30.85-24.19-53.11-53.66-53.11a57.07,57.07,0,0,0-46.5,23.28l4.59-13.81c1.44-3.73-1.15-6.6-5.16-6.6H906.64c-3.15,0-5.45.29-6.6,3.45l-17.22,51.37h-.29l-29-55.1a4.76,4.76,0,0,0-4.59-2.59h-2.3a4.91,4.91,0,0,0-4.59,2.59l-29.27,55.1h-.29l-17.22-51.37c-.57-2-3.44-3.45-5.17-3.45H769.46a6.43,6.43,0,0,0-3.58,1,6.55,6.55,0,0,0-3.6-1H743.62c-3.15,0-5.45.29-6.6,3.45L719.8,422.13h-.28l-29-55.1a4.76,4.76,0,0,0-4.59-2.59h-2.3a4.91,4.91,0,0,0-4.59,2.59l-29.27,55.1h-.29l-17.22-51.37c-.57-2-3.44-3.45-5.17-3.45H606.44a6.43,6.43,0,0,0-3.58,1,6.55,6.55,0,0,0-3.6-1H580.6c-3.15,0-5.45.29-6.6,3.45l-17.22,51.37h-.28l-29-55.1a4.76,4.76,0,0,0-4.59-2.59h-2.3A4.93,4.93,0,0,0,516,367l-29.27,55.1h-.29l-17.22-51.37c-.57-2-3.44-3.45-5.17-3.45H443.42c-4,0-6.6,2.87-4.88,6.6l35.88,107.91A4.86,4.86,0,0,0,479.3,485h1.43a5.07,5.07,0,0,0,4.59-2.58l35.88-66.87h.28l36.17,66.87a5.07,5.07,0,0,0,4.59,2.58h1.15c2.87,0,4.59-1.43,5.16-3.16L603,378.22l34.45,103.6a4.86,4.86,0,0,0,4.87,3.16h1.44a5.07,5.07,0,0,0,4.59-2.58l35.88-66.87h.28l36.16,66.87a5.09,5.09,0,0,0,4.6,2.58h1.14c2.87,0,4.6-1.43,5.17-3.16L766,378.22l34.45,103.6a4.86,4.86,0,0,0,4.87,3.16h1.44a5.09,5.09,0,0,0,4.59-2.58l35.87-66.87h.29l36.16,66.87a5.09,5.09,0,0,0,4.59,2.58h1.15c2.87,0,4.59-1.43,5.17-3.16l19.25-57.91c0,.27,0,.53,0,.8,0,33,24.4,60.27,58.84,60.27,18.65,0,33.29-6.89,42.76-15.78a6.14,6.14,0,0,0,1.12-1.18c6.56,10.82,18.32,17,33,17,17.8,0,28.41-8.61,35-14.64l3.44,7.75c1.43,3.16,2.87,4,4.88,4h10.33a5.64,5.64,0,0,0,5.45-5.45V414.38a112.11,112.11,0,0,0-1.12-16.93h9.16V448c0,23.24,9.76,37,31.86,37,11.88,0,27.05-4.72,32.32-6.69a5.69,5.69,0,0,0,5.18,3.82h23.82c4.3,0,6-2.3,6-5.45V415.81c2.87-11.76,11.77-20.37,25-20.37a21.92,21.92,0,0,1,14,4.57q-.22-3.6-.23-7.25A115.7,115.7,0,0,1,1257.88,365.5ZM971.51,390.85c10.9,0,20.09,8.89,21,19.51H949.12A22.62,22.62,0,0,1,971.51,390.85Zm32.43,57.4c-2-2.3-4.59-1.73-7.46,0a39.94,39.94,0,0,1-22.39,7.17,27.37,27.37,0,0,1-27.55-25h67.83a33.41,33.41,0,0,0-3.54,15.21,48.34,48.34,0,0,0,1.48,12.18Zm73.18,1.14c-1.72,3.45-10.62,11.2-19.8,11.2-8.9,0-14.92-6.32-14.92-14.93,0-9.18,7.46-15.5,18.65-15.5a44.89,44.89,0,0,1,16.07,3.45Zm96.72,0c-3.16,1.15-9.18,3.16-14.06,3.16-4.59,0-8.9-1.15-8.9-9.18V397.45h25.26a5.36,5.36,0,0,0,4.49-2.38v59l-.47-1.51C1179.29,449.68,1177,448.25,1173.84,449.39Z" transform="translate(-438 -281.21)"/><path class="cls-2" d="M1263.57,437.46v39.2a5.45,5.45,0,0,0,5.46,5.45h23.24a4.86,4.86,0,0,0,1.78-.34A132.62,132.62,0,0,1,1263.57,437.46Z" transform="translate(-438 -281.21)"/><path class="cls-6" d="M1294.05,481.77a5.68,5.68,0,0,0,3.68-5.11v-22c9.74,18,28.29,30.27,51.37,30.27,18.65,0,33.29-6.89,42.76-15.78,2.87-2.3,2.3-5.46.29-7.47l-11.77-13.48c-2-2.3-4.59-1.73-7.46,0a39.94,39.94,0,0,1-22.39,7.17,27.37,27.37,0,0,1-27.55-25h73.47a5.62,5.62,0,0,0,4.88-3v49.21a5.65,5.65,0,0,0,5.46,5.45h22.1c4,0,6.6-1.43,6.6-5.45V407.2a23.23,23.23,0,0,1,20.37-11.76,31.14,31.14,0,0,1,8.33,1.72c2.29,1.15,5.16,0,6.6-2.58l10.62-18.66c3.44-7.17-8.62-11.48-22.1-11.48-17.8,0-28.41,12.06-32.43,17.8l-4-11.2a5.26,5.26,0,0,0-5.17-3.73h-10.9a5.46,5.46,0,0,0-5.46,5.46V406.4c-5.1-24.92-26.73-42-52.52-42-25.3,0-45.23,15.29-53.87,36.39-5-17.3-16.72-31.48-37.06-35.33a115.7,115.7,0,0,0-3.25,27.26q0,3.64.23,7.25c5.52,4.41,8.71,11.8,8.71,21.26v16.19A132.62,132.62,0,0,0,1294.05,481.77Zm53.9-90.92c10.91,0,20.09,8.89,21,19.51h-43.33A22.6,22.6,0,0,1,1348,390.85Z" transform="translate(-438 -281.21)"/><path class="cls-2" d="M1014.37,430.45H946.54a27.37,27.37,0,0,0,27.55,25,39.94,39.94,0,0,0,22.39-7.17c2.87-1.73,5.45-2.3,7.46,0l8.37,9.59a48.34,48.34,0,0,1-1.48-12.18A33.41,33.41,0,0,1,1014.37,430.45Z" transform="translate(-438 -281.21)"/><path class="cls-2" d="M971.51,390.85a22.62,22.62,0,0,0-22.39,19.51h43.34C991.6,399.74,982.41,390.85,971.51,390.85Z" transform="translate(-438 -281.21)"/><path class="cls-2" d="M1042.4,445.66c0,8.61,6,14.93,14.92,14.93,9.18,0,18.08-7.75,19.8-11.2V433.61a44.89,44.89,0,0,0-16.07-3.45C1049.86,430.16,1042.4,436.48,1042.4,445.66Z" transform="translate(-438 -281.21)"/><path class="cls-2" d="M1348,390.85a22.6,22.6,0,0,0-22.38,19.51h43.33C1368,399.74,1358.86,390.85,1348,390.85Z" transform="translate(-438 -281.21)"/><path class="cls-2" d="M1180.63,395.07a5.36,5.36,0,0,1-4.49,2.38h-25.26v45.92c0,8,4.31,9.18,8.9,9.18,4.88,0,10.9-2,14.06-3.16s5.45.29,6.32,3.16l.47,1.51Z" transform="translate(-438 -281.21)"/><path class="cls-2" d="M1459.31,364.44c-17.8,0-28.41,12.06-32.43,17.8l-4-11.2a5.26,5.26,0,0,0-5.17-3.73h-10.9a5.46,5.46,0,0,0-5.46,5.46V406.4c-5.1-24.92-26.73-42-52.52-42-25.3,0-45.23,15.29-53.87,36.39-5.82-20.34-21.06-36.39-48.58-36.39-13.49,0-24.67,5.16-30.41,9.47-2.34,4.68-7.36,18.64,0,42.16v-.26c2.87-11.76,11.77-20.37,25-20.37,13.78,0,22.67,10,22.67,25.83v55.39a5.45,5.45,0,0,0,5.46,5.45h23.24a5.65,5.65,0,0,0,5.46-5.45v-22c9.74,18,28.29,30.27,51.37,30.27,18.65,0,33.29-6.89,42.76-15.78,2.87-2.3,2.3-5.46.29-7.47l-11.77-13.48c-2-2.3-4.59-1.73-7.46,0a39.94,39.94,0,0,1-22.39,7.17,27.37,27.37,0,0,1-27.55-25h73.47a5.62,5.62,0,0,0,4.88-3v49.21a5.65,5.65,0,0,0,5.46,5.45h22.1c4,0,6.6-1.43,6.6-5.45V407.2a23.23,23.23,0,0,1,20.37-11.76,31.14,31.14,0,0,1,8.33,1.72c2.29,1.15,5.16,0,6.6-2.58l10.62-18.66C1484.85,368.75,1472.79,364.44,1459.31,364.44Zm-133.74,45.92A22.6,22.6,0,0,1,1348,390.85c10.91,0,20.09,8.89,21,19.51Z" transform="translate(-438 -281.21)"/><path class="cls-2" d="M685.23,364.44h-1.59a4.91,4.91,0,0,0-4.59,2.59l-29.27,55.1h-.29l-17.22-51.37c-.57-2-3.44-3.45-5.17-3.45H606.44a6.43,6.43,0,0,0-3.58,1,6.55,6.55,0,0,0-3.6-1H580.6c-3.15,0-5.45.29-6.6,3.45l-17.22,51.37h-.28l-29-55.1a4.76,4.76,0,0,0-4.59-2.59h-2.3A4.93,4.93,0,0,0,516,367l-29.27,55.1h-.29l-17.22-51.37c-.57-2-3.44-3.45-5.17-3.45H443.42c-4,0-6.6,2.87-4.88,6.6l35.88,107.91A4.86,4.86,0,0,0,479.3,485h1.43a5.07,5.07,0,0,0,4.59-2.58l35.88-66.87h.28l36.17,66.87a5.07,5.07,0,0,0,4.59,2.58h1.15c2.87,0,4.59-1.43,5.16-3.16L603,378.22l34.45,103.6a4.86,4.86,0,0,0,4.87,3.16h1.44a5.07,5.07,0,0,0,4.59-2.58l35.88-66.87h.28l.49.91A199,199,0,0,1,685.23,364.44Z" transform="translate(-438 -281.21)"/><path class="cls-7" d="M1216,373.91h0V286.67a5.65,5.65,0,0,0-5.45-5.46h-24.39a5.66,5.66,0,0,0-5.46,5.46v82.9a5.32,5.32,0,0,0-4.49-2.26h-25.26V335.17a5.39,5.39,0,0,0-5.16-5.45l-23.54.28a5.65,5.65,0,0,0-5.45,5.46v31.85H1107a5.22,5.22,0,0,0-5.17,5.46v7.5c-6.27-10.21-17.65-15.83-37.3-15.83-18.37,0-36.74,4.59-39,5.46-2.58.86-4.88,2.87-4,7.17L1024,392c.57,3.74,2.58,6.32,6.6,5.17,6.6-2,21.53-4.3,32.14-4.3s15.21,5.16,14.93,19.8a73.72,73.72,0,0,0-21-3.16c-12.75,0-23.09,3-30.72,8.05-.14-30.85-24.19-53.11-53.66-53.11a57.07,57.07,0,0,0-46.5,23.28l4.59-13.81c1.44-3.73-1.15-6.6-5.16-6.6H906.64c-3.15,0-5.45.29-6.6,3.45l-17.22,51.37h-.29l-29-55.1a4.76,4.76,0,0,0-4.59-2.59h-2.3a4.91,4.91,0,0,0-4.59,2.59l-29.27,55.1h-.29l-17.22-51.37c-.57-2-3.44-3.45-5.17-3.45H769.46a6.43,6.43,0,0,0-3.58,1,6.55,6.55,0,0,0-3.6-1H743.62c-3.15,0-5.45.29-6.6,3.45L719.8,422.13h-.28l-29-55.1a4.76,4.76,0,0,0-4.59-2.59h-.71a199,199,0,0,0-.24,52l35.67,66a5.09,5.09,0,0,0,4.6,2.58h1.14c2.87,0,4.6-1.43,5.17-3.16L766,378.22l34.45,103.6a4.86,4.86,0,0,0,4.87,3.16h1.44a5.09,5.09,0,0,0,4.59-2.58l35.87-66.87h.29l36.16,66.87a5.09,5.09,0,0,0,4.59,2.58h1.15c2.87,0,4.59-1.43,5.17-3.16l19.25-57.91c0,.27,0,.53,0,.8,0,33,24.4,60.27,58.84,60.27,18.65,0,33.29-6.89,42.76-15.78a6.14,6.14,0,0,0,1.12-1.18c6.56,10.82,18.32,17,33,17,17.8,0,28.41-8.61,35-14.64l3.44,7.75c1.43,3.16,2.87,4,4.88,4h10.33a5.64,5.64,0,0,0,5.45-5.45V414.38a112.11,112.11,0,0,0-1.12-16.93h9.16V448c0,23.24,9.76,37,31.86,37,11.88,0,27.05-4.72,32.32-6.69a5.69,5.69,0,0,0,5.18,3.82h23.82c4.3,0,6-2.3,6-5.45V416.07C1208.59,392.55,1213.61,378.59,1216,373.91ZM971.51,390.85c10.9,0,20.09,8.89,21,19.51H949.12A22.62,22.62,0,0,1,971.51,390.85Zm32.43,57.4c-2-2.3-4.59-1.73-7.46,0a39.94,39.94,0,0,1-22.39,7.17,27.37,27.37,0,0,1-27.55-25h67.83a33.41,33.41,0,0,0-3.54,15.21,48.34,48.34,0,0,0,1.48,12.18Zm73.18,1.14c-1.72,3.45-10.62,11.2-19.8,11.2-8.9,0-14.92-6.32-14.92-14.93,0-9.18,7.46-15.5,18.65-15.5a44.89,44.89,0,0,1,16.07,3.45Zm96.72,0c-3.16,1.15-9.18,3.16-14.06,3.16-4.59,0-8.9-1.15-8.9-9.18V397.45h25.26a5.36,5.36,0,0,0,4.49-2.38v59l-.47-1.51C1179.29,449.68,1177,448.25,1173.84,449.39Z" transform="translate(-438 -281.21)"/><path class="cls-2" d="M1180.63,395.07a5.36,5.36,0,0,1-4.49,2.38h-25.26v45.92c0,8,4.31,9.18,8.9,9.18,4.88,0,10.9-2,14.06-3.16s5.45.29,6.32,3.16l.47,1.51Z" transform="translate(-438 -281.21)"/><path class="cls-2" d="M1042.4,445.66c0,8.61,6,14.93,14.92,14.93,9.18,0,18.08-7.75,19.8-11.2V433.61a44.89,44.89,0,0,0-16.07-3.45C1049.86,430.16,1042.4,436.48,1042.4,445.66Z" transform="translate(-438 -281.21)"/><path class="cls-2" d="M971.51,390.85a22.62,22.62,0,0,0-22.39,19.51h43.34C991.6,399.74,982.41,390.85,971.51,390.85Z" transform="translate(-438 -281.21)"/><path class="cls-2" d="M1014.37,430.45H946.54a27.37,27.37,0,0,0,27.55,25,39.94,39.94,0,0,0,22.39-7.17c2.87-1.73,5.45-2.3,7.46,0l8.37,9.59a48.34,48.34,0,0,1-1.48-12.18A33.41,33.41,0,0,1,1014.37,430.45Z" transform="translate(-438 -281.21)"/><path class="cls-2" d="M1348,390.85a22.6,22.6,0,0,0-22.38,19.51h43.33C1368,399.74,1358.86,390.85,1348,390.85Z" transform="translate(-438 -281.21)"/><path class="cls-2" d="M1459.31,364.44c-17.8,0-28.41,12.06-32.43,17.8l-4-11.2a5.26,5.26,0,0,0-5.17-3.73h-10.9a5.46,5.46,0,0,0-5.46,5.46V406.4c-5.1-24.92-26.73-42-52.52-42-25.3,0-45.23,15.29-53.87,36.39-5.82-20.34-21.06-36.39-48.58-36.39-13.49,0-24.67,5.16-30.41,9.47-2.34,4.68-7.36,18.64,0,42.16v-.26c2.87-11.76,11.77-20.37,25-20.37,13.78,0,22.67,10,22.67,25.83v55.39a5.45,5.45,0,0,0,5.46,5.45h23.24a5.65,5.65,0,0,0,5.46-5.45v-22c9.74,18,28.29,30.27,51.37,30.27,18.65,0,33.29-6.89,42.76-15.78,2.87-2.3,2.3-5.46.29-7.47l-11.77-13.48c-2-2.3-4.59-1.73-7.46,0a39.94,39.94,0,0,1-22.39,7.17,27.37,27.37,0,0,1-27.55-25h73.47a5.62,5.62,0,0,0,4.88-3v49.21a5.65,5.65,0,0,0,5.46,5.45h22.1c4,0,6.6-1.43,6.6-5.45V407.2a23.23,23.23,0,0,1,20.37-11.76,31.14,31.14,0,0,1,8.33,1.72c2.29,1.15,5.16,0,6.6-2.58l10.62-18.66C1484.85,368.75,1472.79,364.44,1459.31,364.44Zm-133.74,45.92A22.6,22.6,0,0,1,1348,390.85c10.91,0,20.09,8.89,21,19.51Z" transform="translate(-438 -281.21)"/><path class="cls-2" d="M719.52,422.13l-29-55.1a4.76,4.76,0,0,0-4.59-2.59h-2.3a4.91,4.91,0,0,0-4.59,2.59l-29.27,55.1h-.29l-17.22-51.37c-.57-2-3.44-3.45-5.17-3.45H606.44a6.43,6.43,0,0,0-3.58,1,6.55,6.55,0,0,0-3.6-1H580.6c-3.15,0-5.45.29-6.6,3.45l-17.22,51.37h-.28l-29-55.1a4.76,4.76,0,0,0-4.59-2.59h-2.3A4.93,4.93,0,0,0,516,367l-29.27,55.1h-.29l-17.22-51.37c-.57-2-3.44-3.45-5.17-3.45H443.42c-4,0-6.6,2.87-4.88,6.6l35.88,107.91A4.86,4.86,0,0,0,479.3,485h1.43a5.07,5.07,0,0,0,4.59-2.58l35.88-66.87h.28l36.17,66.87a5.07,5.07,0,0,0,4.59,2.58h1.15c2.87,0,4.59-1.43,5.16-3.16L603,378.22l34.45,103.6a4.86,4.86,0,0,0,4.87,3.16h1.44a5.07,5.07,0,0,0,4.59-2.58l35.88-66.87h.28l36.16,66.87a5.09,5.09,0,0,0,4.6,2.58h1.14c2.87,0,4.6-1.43,5.17-3.16l2.35-7.05a172.79,172.79,0,0,1-14.33-52.64Z" transform="translate(-438 -281.21)"/><path class="cls-8" d="M1216,373.91h0V286.67a5.65,5.65,0,0,0-5.45-5.46h-24.39a5.66,5.66,0,0,0-5.46,5.46v82.9a5.32,5.32,0,0,0-4.49-2.26h-25.26V335.17a5.39,5.39,0,0,0-5.16-5.45l-23.54.28a5.65,5.65,0,0,0-5.45,5.46v31.85H1107a5.22,5.22,0,0,0-5.17,5.46v7.5c-6.27-10.21-17.65-15.83-37.3-15.83-18.37,0-36.74,4.59-39,5.46-2.58.86-4.88,2.87-4,7.17L1024,392c.57,3.74,2.58,6.32,6.6,5.17,6.6-2,21.53-4.3,32.14-4.3s15.21,5.16,14.93,19.8a73.72,73.72,0,0,0-21-3.16c-12.75,0-23.09,3-30.72,8.05-.14-30.85-24.19-53.11-53.66-53.11a57.07,57.07,0,0,0-46.5,23.28l4.59-13.81c1.44-3.73-1.15-6.6-5.16-6.6H906.64c-3.15,0-5.45.29-6.6,3.45l-17.22,51.37h-.29l-29-55.1a4.76,4.76,0,0,0-4.59-2.59h-2.3a4.91,4.91,0,0,0-4.59,2.59l-29.27,55.1h-.29l-17.22-51.37c-.57-2-3.44-3.45-5.17-3.45H769.46a6.43,6.43,0,0,0-3.58,1,6.55,6.55,0,0,0-3.6-1H743.62c-3.15,0-5.45.29-6.6,3.45L719.8,422.13h-.21a172.79,172.79,0,0,0,14.33,52.64L766,378.22l34.45,103.6a4.86,4.86,0,0,0,4.87,3.16h1.44a5.09,5.09,0,0,0,4.59-2.58l35.87-66.87h.29l36.16,66.87a5.09,5.09,0,0,0,4.59,2.58h1.15c2.87,0,4.59-1.43,5.17-3.16l19.25-57.91c0,.27,0,.53,0,.8,0,33,24.4,60.27,58.84,60.27,18.65,0,33.29-6.89,42.76-15.78a6.14,6.14,0,0,0,1.12-1.18c6.56,10.82,18.32,17,33,17,17.8,0,28.41-8.61,35-14.64l3.44,7.75c1.43,3.16,2.87,4,4.88,4h10.33a5.64,5.64,0,0,0,5.45-5.45V414.38a112.11,112.11,0,0,0-1.12-16.93h9.16V448c0,23.24,9.76,37,31.86,37,11.88,0,27.05-4.72,32.32-6.69a5.69,5.69,0,0,0,5.18,3.82h23.82c4.3,0,6-2.3,6-5.45V416.07C1208.59,392.55,1213.61,378.59,1216,373.91ZM971.51,390.85c10.9,0,20.09,8.89,21,19.51H949.12A22.62,22.62,0,0,1,971.51,390.85Zm32.43,57.4c-2-2.3-4.59-1.73-7.46,0a39.94,39.94,0,0,1-22.39,7.17,27.37,27.37,0,0,1-27.55-25h67.83a33.41,33.41,0,0,0-3.54,15.21,48.34,48.34,0,0,0,1.48,12.18Zm73.18,1.14c-1.72,3.45-10.62,11.2-19.8,11.2-8.9,0-14.92-6.32-14.92-14.93,0-9.18,7.46-15.5,18.65-15.5a44.89,44.89,0,0,1,16.07,3.45Zm96.72,0c-3.16,1.15-9.18,3.16-14.06,3.16-4.59,0-8.9-1.15-8.9-9.18V397.45h25.26a5.36,5.36,0,0,0,4.49-2.38v59l-.47-1.51C1179.29,449.68,1177,448.25,1173.84,449.39Z" transform="translate(-438 -281.21)"/><path class="cls-2" d="M1042.4,445.66c0,8.61,6,14.93,14.92,14.93a17.35,17.35,0,0,0,3-.28c8.06-1.37,15.31-7.85,16.84-10.92V433.61a45.4,45.4,0,0,0-16.07-3.45C1049.86,430.16,1042.4,436.48,1042.4,445.66Z" transform="translate(-438 -281.21)"/><path class="cls-2" d="M1014.37,430.45H946.54a27.37,27.37,0,0,0,27.55,25,39.94,39.94,0,0,0,22.39-7.17c2.87-1.73,5.45-2.3,7.46,0l8.37,9.59a48.34,48.34,0,0,1-1.48-12.18A33.41,33.41,0,0,1,1014.37,430.45Z" transform="translate(-438 -281.21)"/><path class="cls-2" d="M971.51,390.85a22.62,22.62,0,0,0-22.39,19.51h43.34C991.6,399.74,982.41,390.85,971.51,390.85Z" transform="translate(-438 -281.21)"/><path class="cls-2" d="M1348,390.85a22.6,22.6,0,0,0-22.38,19.51h43.33C1368,399.74,1358.86,390.85,1348,390.85Z" transform="translate(-438 -281.21)"/><path class="cls-2" d="M1180.63,395.07a5.36,5.36,0,0,1-4.49,2.38h-25.26v45.92c0,8,4.31,9.18,8.9,9.18,4.88,0,10.9-2,14.06-3.16s5.45.29,6.32,3.16l.47,1.51Z" transform="translate(-438 -281.21)"/><path class="cls-2" d="M812.51,422.13l-17.22-51.37c-.57-2-3.44-3.45-5.17-3.45H769.46a6.43,6.43,0,0,0-3.58,1,6.55,6.55,0,0,0-3.6-1H743.62c-3.15,0-5.45.29-6.6,3.45L719.8,422.13h-.28l-29-55.1a4.76,4.76,0,0,0-4.59-2.59h-2.3a4.91,4.91,0,0,0-4.59,2.59l-29.27,55.1h-.29l-17.22-51.37c-.57-2-3.44-3.45-5.17-3.45H606.44a6.43,6.43,0,0,0-3.58,1,6.55,6.55,0,0,0-3.6-1H580.6c-3.15,0-5.45.29-6.6,3.45l-17.22,51.37h-.28l-29-55.1a4.76,4.76,0,0,0-4.59-2.59h-2.3A4.93,4.93,0,0,0,516,367l-29.27,55.1h-.29l-17.22-51.37c-.57-2-3.44-3.45-5.17-3.45H443.42c-4,0-6.6,2.87-4.88,6.6l35.88,107.91A4.86,4.86,0,0,0,479.3,485h1.43a5.07,5.07,0,0,0,4.59-2.58l35.88-66.87h.28l36.17,66.87a5.07,5.07,0,0,0,4.59,2.58h1.15c2.87,0,4.59-1.43,5.16-3.16L603,378.22l34.45,103.6a4.86,4.86,0,0,0,4.87,3.16h1.44a5.07,5.07,0,0,0,4.59-2.58l35.88-66.87h.28l36.16,66.87a5.09,5.09,0,0,0,4.6,2.58h1.14c2.87,0,4.6-1.43,5.17-3.16L766,378.22l34.45,103.6a4.86,4.86,0,0,0,4.87,3.16h1.44a5.09,5.09,0,0,0,4.59-2.58l14.54-27.11a264.68,264.68,0,0,1-13.16-33.16Z" transform="translate(-438 -281.21)"/><path class="cls-2" d="M1459.31,364.44c-17.8,0-28.41,12.06-32.43,17.8l-4-11.2a5.26,5.26,0,0,0-5.17-3.73h-10.9a5.46,5.46,0,0,0-5.46,5.46V406.4c-5.1-24.92-26.73-42-52.52-42-25.3,0-45.23,15.29-53.87,36.39-5.82-20.34-21.06-36.39-48.58-36.39-13.49,0-24.69,5.17-30.43,9.47V286.67a5.65,5.65,0,0,0-5.45-5.46h-24.39a5.66,5.66,0,0,0-5.46,5.46v82.9a5.32,5.32,0,0,0-4.49-2.26h-25.26V335.17a5.39,5.39,0,0,0-5.16-5.45l-23.54.28a5.65,5.65,0,0,0-5.45,5.46v31.85H1107a5.22,5.22,0,0,0-5.17,5.46v7.5a29.37,29.37,0,0,0-13.87-11.84A302,302,0,0,1,1072.54,432a40.94,40.94,0,0,1,4.58,1.62v15.78c-1.53,3.07-8.78,9.55-16.84,10.92a219.24,219.24,0,0,1-14.47,24.53c1.23.09,2.48.14,3.76.14,17.8,0,28.41-8.61,35-14.64l3.44,7.75c1.43,3.16,2.87,4,4.88,4h10.33a5.64,5.64,0,0,0,5.45-5.45V414.38a112.11,112.11,0,0,0-1.12-16.93h9.16V448c0,23.24,9.76,37,31.86,37,11.88,0,27.05-4.72,32.32-6.69a5.69,5.69,0,0,0,5.18,3.82h23.82c4.3,0,6-2.3,6-5.45V415.81c2.87-11.76,11.77-20.37,25-20.37,13.78,0,22.67,10,22.67,25.83v55.39a5.45,5.45,0,0,0,5.46,5.45h23.24a5.65,5.65,0,0,0,5.46-5.45v-22c9.74,18,28.29,30.27,51.37,30.27,18.65,0,33.29-6.89,42.76-15.78,2.87-2.3,2.3-5.46.29-7.47l-11.77-13.48c-2-2.3-4.59-1.73-7.46,0a39.94,39.94,0,0,1-22.39,7.17,27.37,27.37,0,0,1-27.55-25h73.47a5.62,5.62,0,0,0,4.88-3v49.21a5.65,5.65,0,0,0,5.46,5.45h22.1c4,0,6.6-1.43,6.6-5.45V407.2a23.23,23.23,0,0,1,20.37-11.76,31.14,31.14,0,0,1,8.33,1.72c2.29,1.15,5.16,0,6.6-2.58l10.62-18.66C1484.85,368.75,1472.79,364.44,1459.31,364.44Zm-285.47,84.95c-3.16,1.15-9.18,3.16-14.06,3.16-4.59,0-8.9-1.15-8.9-9.18V397.45h25.26a5.36,5.36,0,0,0,4.49-2.38v59l-.47-1.51C1179.29,449.68,1177,448.25,1173.84,449.39Zm151.73-39A22.6,22.6,0,0,1,1348,390.85c10.91,0,20.09,8.89,21,19.51Z" transform="translate(-438 -281.21)"/><path class="cls-9" d="M1057.32,460.59c-8.9,0-14.92-6.32-14.92-14.93,0-9.18,7.46-15.5,18.65-15.5a41.19,41.19,0,0,1,11.49,1.83,302,302,0,0,0,15.39-63.56c-6-2.61-13.73-4-23.43-4-18.37,0-36.74,4.59-39,5.46-2.58.86-4.88,2.87-4,7.17L1024,392c.57,3.74,2.58,6.32,6.6,5.17,6.6-2,21.53-4.3,32.14-4.3s15.21,5.16,14.93,19.8a73.72,73.72,0,0,0-21-3.16c-12.75,0-23.09,3-30.72,8.05-.14-30.85-24.19-53.11-53.66-53.11a57.07,57.07,0,0,0-46.5,23.28l4.59-13.81c1.44-3.73-1.15-6.6-5.16-6.6H906.64c-3.15,0-5.45.29-6.6,3.45l-17.22,51.37h-.29l-29-55.1a4.76,4.76,0,0,0-4.59-2.59h-2.3a4.91,4.91,0,0,0-4.59,2.59l-29.27,55.1h-.06a264.68,264.68,0,0,0,13.16,33.16l21.33-39.76h.29l36.16,66.87a5.09,5.09,0,0,0,4.59,2.58h1.15c2.87,0,4.59-1.43,5.17-3.16l19.25-57.91c0,.27,0,.53,0,.8,0,33,24.4,60.27,58.84,60.27,18.65,0,33.29-6.89,42.76-15.78a6.14,6.14,0,0,0,1.12-1.18c6,9.88,16.32,15.85,29.27,16.82a219.24,219.24,0,0,0,14.47-24.53A17.35,17.35,0,0,1,1057.32,460.59Zm-85.81-69.74c10.9,0,20.09,8.89,21,19.51H949.12A22.62,22.62,0,0,1,971.51,390.85Zm32.43,57.4c-2-2.3-4.59-1.73-7.46,0a39.94,39.94,0,0,1-22.39,7.17,27.37,27.37,0,0,1-27.55-25h67.83a33.41,33.41,0,0,0-3.54,15.21,48.34,48.34,0,0,0,1.48,12.18Z" transform="translate(-438 -281.21)"/><g class="cls-10"><path class="cls-11" d="M438.54,373.91c-1.72-3.73.86-6.6,4.88-6.6h20.66c1.73,0,4.6,1.44,5.17,3.45l17.22,51.37h.29L516,367a4.93,4.93,0,0,1,4.59-2.59h2.3a4.76,4.76,0,0,1,4.59,2.59l29,55.1h.28L574,370.76c1.15-3.16,3.45-3.45,6.6-3.45h18.66c4,0,6.6,2.87,5.17,6.6L568.55,481.82c-.57,1.73-2.29,3.16-5.16,3.16h-1.15a5.07,5.07,0,0,1-4.59-2.58l-36.17-66.87h-.28L485.32,482.4a5.07,5.07,0,0,1-4.59,2.58H479.3a4.86,4.86,0,0,1-4.88-3.16Z" transform="translate(-438 -281.21)"/><path class="cls-12" d="M601.56,373.91c-1.72-3.73.86-6.6,4.88-6.6H627.1c1.73,0,4.6,1.44,5.17,3.45l17.22,51.37h.29L679.05,367a4.91,4.91,0,0,1,4.59-2.59h2.3a4.76,4.76,0,0,1,4.59,2.59l29,55.1h.28L737,370.76c1.15-3.16,3.45-3.45,6.6-3.45h18.66c4,0,6.6,2.87,5.16,6.6L731.57,481.82c-.57,1.73-2.3,3.16-5.17,3.16h-1.14a5.09,5.09,0,0,1-4.6-2.58L684.5,415.53h-.28L648.34,482.4a5.07,5.07,0,0,1-4.59,2.58h-1.44a4.86,4.86,0,0,1-4.87-3.16Z" transform="translate(-438 -281.21)"/><path class="cls-13" d="M764.58,373.91c-1.72-3.73.86-6.6,4.88-6.6h20.66c1.73,0,4.6,1.44,5.17,3.45l17.22,51.37h.29L842.07,367a4.91,4.91,0,0,1,4.59-2.59H849a4.76,4.76,0,0,1,4.59,2.59l29,55.1h.29L900,370.76c1.15-3.16,3.45-3.45,6.6-3.45H925.3c4,0,6.6,2.87,5.16,6.6L894.59,481.82c-.58,1.73-2.3,3.16-5.17,3.16h-1.15a5.09,5.09,0,0,1-4.59-2.58l-36.16-66.87h-.29L811.36,482.4a5.09,5.09,0,0,1-4.59,2.58h-1.44a4.86,4.86,0,0,1-4.87-3.16Z" transform="translate(-438 -281.21)"/><path class="cls-14" d="M972.37,364.44c29.56,0,53.67,22.39,53.67,53.38a69.67,69.67,0,0,1-.58,7.75,5.54,5.54,0,0,1-5.45,4.88H946.54a27.37,27.37,0,0,0,27.55,25,39.94,39.94,0,0,0,22.39-7.17c2.87-1.73,5.45-2.3,7.46,0l11.76,13.48c2,2,2.59,5.17-.28,7.47C1006,478.09,991.31,485,972.66,485c-34.44,0-58.84-27.26-58.84-60.27C913.82,392.28,938.22,364.44,972.37,364.44Zm20.09,45.92c-.86-10.62-10.05-19.51-21-19.51a22.62,22.62,0,0,0-22.39,19.51Z" transform="translate(-438 -281.21)"/><path class="cls-15" d="M1056.75,409.5a73.72,73.72,0,0,1,21,3.16c.28-14.64-4.31-19.8-14.93-19.8s-25.54,2.29-32.14,4.3c-4,1.15-6-1.43-6.6-5.17l-2.58-14.92c-.87-4.3,1.43-6.31,4-7.17,2.3-.87,20.67-5.46,39-5.46,35.87,0,44.19,18.66,44.19,49.94v62.28a5.64,5.64,0,0,1-5.45,5.45h-10.33c-2,0-3.45-.86-4.88-4l-3.44-7.75c-6.61,6-17.22,14.64-35,14.64-23,0-38.74-14.92-38.74-39.32C1010.83,425.29,1027.47,409.5,1056.75,409.5Zm.57,51.09c9.18,0,18.08-7.75,19.8-11.2V433.61a44.89,44.89,0,0,0-16.07-3.45c-11.19,0-18.65,6.32-18.65,15.5C1042.4,454.27,1048.42,460.59,1057.32,460.59Z" transform="translate(-438 -281.21)"/><path class="cls-16" d="M1116.73,397.45H1107a5.41,5.41,0,0,1-5.17-5.46V372.77a5.22,5.22,0,0,1,5.17-5.46h9.76V335.46a5.65,5.65,0,0,1,5.45-5.46l23.54-.28a5.39,5.39,0,0,1,5.16,5.45v32.14h25.26a5.28,5.28,0,0,1,5.45,5.46V392a5.46,5.46,0,0,1-5.45,5.46h-25.26v45.92c0,8,4.31,9.18,8.9,9.18,4.88,0,10.9-2,14.06-3.16s5.45.29,6.32,3.16l5.74,18.08a5.21,5.21,0,0,1-3.16,6.89c-1.44.86-20.09,7.46-34.15,7.46-22.1,0-31.86-13.78-31.86-37Z" transform="translate(-438 -281.21)"/><path class="cls-17" d="M1180.63,286.67a5.66,5.66,0,0,1,5.46-5.46h24.39a5.65,5.65,0,0,1,5.45,5.46v87.24c5.74-4.3,16.94-9.47,30.43-9.47,36.44,0,51.37,28.13,51.37,57.11v55.11a5.65,5.65,0,0,1-5.46,5.45H1269a5.45,5.45,0,0,1-5.46-5.45V421.27c0-15.79-8.89-25.83-22.67-25.83-13.2,0-22.1,8.61-25,20.37v60.85c0,3.15-1.72,5.45-6,5.45h-23.82a5.65,5.65,0,0,1-5.46-5.45Z" transform="translate(-438 -281.21)"/><path class="cls-18" d="M1348.81,364.44c29.56,0,53.67,22.39,53.67,53.38a72.14,72.14,0,0,1-.57,7.75,5.55,5.55,0,0,1-5.46,4.88H1323a27.37,27.37,0,0,0,27.55,25,39.94,39.94,0,0,0,22.39-7.17c2.87-1.73,5.45-2.3,7.46,0l11.77,13.48c2,2,2.58,5.17-.29,7.47-9.47,8.89-24.11,15.78-42.76,15.78-34.44,0-58.83-27.26-58.83-60.27C1290.27,392.28,1314.66,364.44,1348.81,364.44Zm20.09,45.92c-.86-10.62-10-19.51-21-19.51a22.6,22.6,0,0,0-22.38,19.51Z" transform="translate(-438 -281.21)"/><path class="cls-19" d="M1401.33,372.77a5.46,5.46,0,0,1,5.46-5.46h10.9a5.26,5.26,0,0,1,5.17,3.73l4,11.2c4-5.74,14.63-17.8,32.43-17.8,13.48,0,25.54,4.31,22.1,11.48l-10.62,18.66c-1.44,2.58-4.31,3.73-6.6,2.58a31.14,31.14,0,0,0-8.33-1.72,23.23,23.23,0,0,0-20.37,11.76v69.46c0,4-2.59,5.45-6.6,5.45h-22.1a5.65,5.65,0,0,1-5.46-5.45Z" transform="translate(-438 -281.21)"/></g><g class="cls-20"><path class="cls-21" d="M438.54,373.91c-1.72-3.73.86-6.6,4.88-6.6h20.66c1.73,0,4.6,1.44,5.17,3.45l17.22,51.37h.29L516,367a4.93,4.93,0,0,1,4.59-2.59h2.3a4.76,4.76,0,0,1,4.59,2.59l29,55.1h.28L574,370.76c1.15-3.16,3.45-3.45,6.6-3.45h18.66c4,0,6.6,2.87,5.17,6.6L568.55,481.82c-.57,1.73-2.29,3.16-5.16,3.16h-1.15a5.07,5.07,0,0,1-4.59-2.58l-36.17-66.87h-.28L485.32,482.4a5.07,5.07,0,0,1-4.59,2.58H479.3a4.86,4.86,0,0,1-4.88-3.16Z" transform="translate(-438 -281.21)"/><path class="cls-22" d="M601.56,373.91c-1.72-3.73.86-6.6,4.88-6.6H627.1c1.73,0,4.6,1.44,5.17,3.45l17.22,51.37h.29L679.05,367a4.91,4.91,0,0,1,4.59-2.59h2.3a4.76,4.76,0,0,1,4.59,2.59l29,55.1h.28L737,370.76c1.15-3.16,3.45-3.45,6.6-3.45h18.66c4,0,6.6,2.87,5.16,6.6L731.57,481.82c-.57,1.73-2.3,3.16-5.17,3.16h-1.14a5.09,5.09,0,0,1-4.6-2.58L684.5,415.53h-.28L648.34,482.4a5.07,5.07,0,0,1-4.59,2.58h-1.44a4.86,4.86,0,0,1-4.87-3.16Z" transform="translate(-438 -281.21)"/><path class="cls-23" d="M764.58,373.91c-1.72-3.73.86-6.6,4.88-6.6h20.66c1.73,0,4.6,1.44,5.17,3.45l17.22,51.37h.29L842.07,367a4.91,4.91,0,0,1,4.59-2.59H849a4.76,4.76,0,0,1,4.59,2.59l29,55.1h.29L900,370.76c1.15-3.16,3.45-3.45,6.6-3.45H925.3c4,0,6.6,2.87,5.16,6.6L894.59,481.82c-.58,1.73-2.3,3.16-5.17,3.16h-1.15a5.09,5.09,0,0,1-4.59-2.58l-36.16-66.87h-.29L811.36,482.4a5.09,5.09,0,0,1-4.59,2.58h-1.44a4.86,4.86,0,0,1-4.87-3.16Z" transform="translate(-438 -281.21)"/><path class="cls-24" d="M972.37,364.44c29.56,0,53.67,22.39,53.67,53.38a69.67,69.67,0,0,1-.58,7.75,5.54,5.54,0,0,1-5.45,4.88H946.54a27.37,27.37,0,0,0,27.55,25,39.94,39.94,0,0,0,22.39-7.17c2.87-1.73,5.45-2.3,7.46,0l11.76,13.48c2,2,2.59,5.17-.28,7.47C1006,478.09,991.31,485,972.66,485c-34.44,0-58.84-27.26-58.84-60.27C913.82,392.28,938.22,364.44,972.37,364.44Zm20.09,45.92c-.86-10.62-10.05-19.51-21-19.51a22.62,22.62,0,0,0-22.39,19.51Z" transform="translate(-438 -281.21)"/><path class="cls-25" d="M1056.75,409.5a73.72,73.72,0,0,1,21,3.16c.28-14.64-4.31-19.8-14.93-19.8s-25.54,2.29-32.14,4.3c-4,1.15-6-1.43-6.6-5.17l-2.58-14.92c-.87-4.3,1.43-6.31,4-7.17,2.3-.87,20.67-5.46,39-5.46,35.87,0,44.19,18.66,44.19,49.94v62.28a5.64,5.64,0,0,1-5.45,5.45h-10.33c-2,0-3.45-.86-4.88-4l-3.44-7.75c-6.61,6-17.22,14.64-35,14.64-23,0-38.74-14.92-38.74-39.32C1010.83,425.29,1027.47,409.5,1056.75,409.5Zm.57,51.09c9.18,0,18.08-7.75,19.8-11.2V433.61a44.89,44.89,0,0,0-16.07-3.45c-11.19,0-18.65,6.32-18.65,15.5C1042.4,454.27,1048.42,460.59,1057.32,460.59Z" transform="translate(-438 -281.21)"/><path class="cls-26" d="M1116.73,397.45H1107a5.41,5.41,0,0,1-5.17-5.46V372.77a5.22,5.22,0,0,1,5.17-5.46h9.76V335.46a5.65,5.65,0,0,1,5.45-5.46l23.54-.28a5.39,5.39,0,0,1,5.16,5.45v32.14h25.26a5.28,5.28,0,0,1,5.45,5.46V392a5.46,5.46,0,0,1-5.45,5.46h-25.26v45.92c0,8,4.31,9.18,8.9,9.18,4.88,0,10.9-2,14.06-3.16s5.45.29,6.32,3.16l5.74,18.08a5.21,5.21,0,0,1-3.16,6.89c-1.44.86-20.09,7.46-34.15,7.46-22.1,0-31.86-13.78-31.86-37Z" transform="translate(-438 -281.21)"/><path class="cls-27" d="M1180.63,286.67a5.66,5.66,0,0,1,5.46-5.46h24.39a5.65,5.65,0,0,1,5.45,5.46v87.24c5.74-4.3,16.94-9.47,30.43-9.47,36.44,0,51.37,28.13,51.37,57.11v55.11a5.65,5.65,0,0,1-5.46,5.45H1269a5.45,5.45,0,0,1-5.46-5.45V421.27c0-15.79-8.89-25.83-22.67-25.83-13.2,0-22.1,8.61-25,20.37v60.85c0,3.15-1.72,5.45-6,5.45h-23.82a5.65,5.65,0,0,1-5.46-5.45Z" transform="translate(-438 -281.21)"/><path class="cls-28" d="M1348.81,364.44c29.56,0,53.67,22.39,53.67,53.38a72.14,72.14,0,0,1-.57,7.75,5.55,5.55,0,0,1-5.46,4.88H1323a27.37,27.37,0,0,0,27.55,25,39.94,39.94,0,0,0,22.39-7.17c2.87-1.73,5.45-2.3,7.46,0l11.77,13.48c2,2,2.58,5.17-.29,7.47-9.47,8.89-24.11,15.78-42.76,15.78-34.44,0-58.83-27.26-58.83-60.27C1290.27,392.28,1314.66,364.44,1348.81,364.44Zm20.09,45.92c-.86-10.62-10-19.51-21-19.51a22.6,22.6,0,0,0-22.38,19.51Z" transform="translate(-438 -281.21)"/><path class="cls-29" d="M1401.33,372.77a5.46,5.46,0,0,1,5.46-5.46h10.9a5.26,5.26,0,0,1,5.17,3.73l4,11.2c4-5.74,14.63-17.8,32.43-17.8,13.48,0,25.54,4.31,22.1,11.48l-10.62,18.66c-1.44,2.58-4.31,3.73-6.6,2.58a31.14,31.14,0,0,0-8.33-1.72,23.23,23.23,0,0,0-20.37,11.76v69.46c0,4-2.59,5.45-6.6,5.45h-22.1a5.65,5.65,0,0,1-5.46-5.45Z" transform="translate(-438 -281.21)"/></g></g></g></svg>